PathFileType	4	(X/Y/Z)	/Users/niels/Desktop/University/Third Semester/Perception and Action/Exam/Gymnastics Motion Tracking/Code for Gym Tracking/Analyzed Data/Webcam_Backflip/id2000_2_trajectory_Sports2D/id2000_2_trajectory_Sports2D_px_person00.trc
DataRate	CameraRate	NumFrames	NumMarkers	Units	OrigDataRate	OrigDataStartFrame	OrigNumFrames
29.8876404494382	29.8876404494382	12	22	m	29.8876404494382	166	267
Frame#	Time	Hip			RHip			RKnee			RAnkle			RBigToe			RSmallToe			RHeel			LHip			LKnee			LAnkle			LBigToe			LSmallToe			LHeel			Neck			Head			Nose			RShoulder			RElbow			RWrist			LShoulder			LElbow			LWrist		
		X1	Y1	Z1	X2	Y2	Z2	X3	Y3	Z3	X4	Y4	Z4	X5	Y5	Z5	X6	Y6	Z6	X7	Y7	Z7	X8	Y8	Z8	X9	Y9	Z9	X10	Y10	Z10	X11	Y11	Z11	X12	Y12	Z12	X13	Y13	Z13	X14	Y14	Z14	X15	Y15	Z15	X16	Y16	Z16	X17	Y17	Z17	X18	Y18	Z18	X19	Y19	Z19	X20	Y20	Z20	X21	Y21	Z21	X22	Y22	Z22
166	5.554135338345865	1.009312806384824	-0.46331650617956205	0.0	0.992114618211279	-0.4631227466240197	0.0	1.0875182177296783	-0.8581951931922774	0.0	1.0091826898209155	-1.0774052041146711	0.0	1.197019779283616	-1.1604436873323878	0.0	1.1871306215075188	-1.1166637564460118	0.0	0.9826516624121715	-1.0908902340598812	0.0	1.0433935095666698	-0.469473040683245	0.0	1.04284033620708	-0.8595924807070059	0.0	1.037761960007433	-1.050150975712883	0.0	1.188580191340711	-1.0850368114784346	0.0	1.1790093199189295	-1.0674774808069836	0.0	1.006868533301945	-1.064796929380336	0.0	1.0001696893728782	-0.033430195562509105	0.0	1.109999698238099	-0.052500466119098664	0.0	1.1247072476871645	-0.0015087985603236388	0.0	0.930681283965544	-0.013601121519403644	0.0	1.089072742399154	-0.14957970029060502	0.0	1.302264323580711	-0.2240002256324648	0.0	1.0384550809691924	-0.047612211378185484	0.0	1.1164030314474458	-0.22278451062781587	0.0	1.2914458752723708	-0.2496091165069277	0.0
167	5.587593984962406	1.0127210096151853	-0.46897534730789836	0.0	0.992116265432293	-0.4647307869341388	0.0	1.0564838819809421	-0.8732926844112562	0.0	0.987995858828492	-1.079038444703911	0.0	1.1953410635510864	-1.1799934247820913	0.0	1.1898356366613636	-1.11670587568881	0.0	0.9642575314015942	-1.0942966439064672	0.0	1.049131436091598	-0.4737716212194424	0.0	1.0451835083640528	-0.8659015961836932	0.0	1.0501303537424866	-1.045457264154397	0.0	1.1842412761723424	-1.0784175489208194	0.0	1.1737648443978834	-1.0640011344288367	0.0	1.0163098118023124	-1.0639088364826697	0.0	1.0102133826475492	-0.034797930281647904	0.0	1.1099975536795916	-0.05250112495923209	0.0	1.133063255716117	-0.0016253094572443345	0.0	0.939441581151323	-0.012491150706475329	0.0	1.0604035045289866	-0.1829503513099698	0.0	1.2663123274026158	-0.30497039454378067	0.0	1.0501449930873095	-0.048187683765861765	0.0	1.0963878564635376	-0.242815453743537	0.0	1.2634789887057318	-0.3201005696828929	0.0
168	5.621052631578948	1.0157842246812898	-0.4734155869449444	0.0	0.99121712268544	-0.4667696206401679	0.0	1.0309918948780177	-0.8834581404238427	0.0	0.969625565705649	-1.0808314737545273	0.0	1.1946954067205835	-1.1943113324730303	0.0	1.1916718325044395	-1.1162829841880115	0.0	0.9457893276155358	-1.096721975420056	0.0	1.052533790721495	-0.4780263039809692	0.0	1.0448006426815868	-0.8715311921486728	0.0	1.0530289051158668	-1.0426287435206392	0.0	1.1721779688047307	-1.07537743164736	0.0	1.1618849899638044	-1.062868139912359	0.0	1.0157897520212875	-1.0646077748780884	0.0	1.0200437957184427	-0.03633891246539374	0.0	1.109994137246191	-0.05250197085881401	0.0	1.1399526076884055	-0.0021733241125755343	0.0	0.9494205866404912	-0.011632891258525069	0.0	1.0291867367353678	-0.2091773219154795	0.0	1.2130172439505247	-0.38024100054475407	0.0	1.0606072158852786	-0.04986806529177402	0.0	1.0777630188486718	-0.2589349590831835	0.0	1.2282876279246568	-0.38366149086897094	0.0
169	5.654511278195489	1.0183692451585293	-0.47651564919006084	0.0	0.9891027779853241	-0.46980540814628197	0.0	1.0106096915564884	-0.8887266669553059	0.0	0.9544769815094526	-1.0822190243438603	0.0	1.1946313720293087	-1.202778682627451	0.0	1.1926540310911729	-1.1157838791645232	0.0	0.9280981802949402	-1.0976680311828375	0.0	1.0544848107135114	-0.4825047292152884	0.0	1.0422226485529937	-0.8750695897324514	0.0	1.0459208250486172	-1.0418843207822859	0.0	1.1527446682143547	-1.074698609615702	0.0	1.1442254832242569	-1.0636703861629375	0.0	1.0053665658766704	-1.0661575363973312	0.0	1.0293943782577912	-0.037465404810722525	0.0	1.1099897874135254	-0.052502724372573625	0.0	1.1456143125425857	-0.002754040063124107	0.0	0.9601560275885399	-0.01093545407190912	0.0	0.9968163585700588	-0.22502652239765505	0.0	1.1441391045999083	-0.4407221978960571	0.0	1.0698974759285382	-0.051951269264264445	0.0	1.0632231513842998	-0.2707693998152375	0.0	1.1896326733169575	-0.43438917585822806	0.0
170	5.68796992481203	1.019925922526164	-0.4784029041839911	0.0	0.9854684101329615	-0.4737391468500241	0.0	0.9943165119373358	-0.8896482139959957	0.0	0.9422835830026945	-1.082592391776194	0.0	1.1948239298788494	-1.2065470663240816	0.0	1.1930184208452694	-1.1153894746552888	0.0	0.9120830275963991	-1.0968487317890918	0.0	1.0556462996414868	-0.48733847507699557	0.0	1.0392548065198317	-0.8757746424551375	0.0	1.0319269708562082	-1.04298474766621	0.0	1.129317039850079	-1.075870927820746	0.0	1.123123947490925	-1.0658441304569095	0.0	0.9890755685686533	-1.0676621180507722	0.0	1.038152557893894	-0.037781864730686	0.0	1.1099859589462155	-0.052502766613077935	0.0	1.1504741501006681	-0.0023330102650407692	0.0	0.9713324175783997	-0.010265923109197283	0.0	0.9643089605263416	-0.22983096056297683	0.0	1.0637692697318613	-0.4809687331306793	0.0	1.0781621439071916	-0.05358829566231713	0.0	1.0538336412691431	-0.27808283277304413	0.0	1.1498273367286347	-0.4694109786019802	0.0
171	5.7214285714285715	1.0196600086935512	-0.47917149953312116	0.0	0.9799683939570465	-0.4775217444306539	0.0	0.9809187412789871	-0.8876382820625128	0.0	0.9321941507954165	-1.0819959882642574	0.0	1.195067768147013	-1.2073555534050588	0.0	1.1930285043005264	-1.1151448723917765	0.0	0.8984068292348113	-1.0945337061691989	0.0	1.0561963453360819	-0.4920618827662566	0.0	1.0378362527520575	-0.8741001181628406	0.0	1.0162246335959004	-1.0455167156094722	0.0	1.108788171761486	-1.079427281033716	0.0	1.102604900846912	-1.0690531880177718	0.0	0.9730661318185854	-1.0687379519138958	0.0	1.0463771610580062	-0.03703887221351685	0.0	1.1099858617684342	-0.0525010609326738	0.0	1.1553582557475521	0.0007604715941968152	0.0	0.9829697016766585	-0.009494995546062883	0.0	0.9325161468645585	-0.22503061620519887	0.0	0.9781796435949208	-0.500130675316548	0.0	1.08545122104545	-0.05403276962457072	0.0	1.0485249545557673	-0.28113913085862385	0.0	1.1087452441093197	-0.4889470160949135	0.0
172	5.754887218045113	1.016989442159817	-0.4788818256623105	0.0	0.9724595381209772	-0.4797287704910912	0.0	0.9695063838367148	-0.8845580073482108	0.0	0.9231555730442859	-1.081059655450916	0.0	1.1952614367308285	-1.206712729669249	0.0	1.192887596586576	-1.1150249434703319	0.0	0.8872997759508304	-1.0914411436757132	0.0	1.0559422347914087	-0.4958360474557171	0.0	1.0392403911433723	-0.8711909800268083	0.0	1.0038620190868703	-1.048976186387196	0.0	1.0991471361767213	-1.0861949649376945	0.0	1.0873992949781874	-1.0730777546916719	0.0	0.9627926224246559	-1.069635251023456	0.0	1.0541534023403039	-0.03527281286764237	0.0	1.1099948531106256	-0.05249623688754223	0.0	1.1616972026846313	0.008535888874825344	0.0	0.9952216228887544	-0.008490213311031457	0.0	0.9024840751153586	-0.2133327105414869	0.0	0.8948407798604401	-0.5009683659267264	0.0	1.0917527967503162	-0.052909668512611856	0.0	1.0448416200078534	-0.28067020721289176	0.0	1.0644733365652281	-0.4951080867203677	0.0
173	5.788345864661654	1.0120720423705003	-0.4777926880293437	0.0	0.9634031418754381	-0.47965433769386834	0.0	0.959689647348633	-0.8819192181447206	0.0	0.9143554591470662	-1.0804543569781542	0.0	1.1953732892885782	-1.2056210784312253	0.0	1.1927191183132728	-1.1149796833541952	0.0	0.8784528696519018	-1.0883871652567538	0.0	1.0546401049263112	-0.4981313952884005	0.0	1.0436427771805572	-0.8678529411662386	0.0	0.9976692238817141	-1.0527164666487139	0.0	1.1051197506088706	-1.0959921470304188	0.0	1.0810654474549506	-1.077454127971792	0.0	0.9603348207860958	-1.0708929120638289	0.0	1.0614552038227276	-0.032985122878651595	0.0	1.1100199822363561	-0.052487011907272195	0.0	1.1713348574584261	0.022503782320528864	0.0	1.007948017172086	-0.007170128000843665	0.0	0.8756962524621914	-0.1981241336134484	0.0	0.8208980510044818	-0.48858469508881625	0.0	1.09718908028047	-0.05048597485430056	0.0	1.0403105464883586	-0.27772244767857773	0.0	1.0156614508624378	-0.4907499275702344	0.0
174	5.821804511278196	1.0058218603838784	-0.4764671846596508	0.0	0.9539019937632894	-0.47788105300857336	0.0	0.9514185569003165	-0.8804209844455565	0.0	0.9055419818995716	-1.0804766380230861	0.0	1.1954101176758174	-1.204601950531282	0.0	1.1925805631583797	-1.1149597725468503	0.0	0.8712980972055838	-1.0860045224072294	0.0	1.0521592971781024	-0.49914550264093066	0.0	1.050144355046849	-0.8640216488519407	0.0	0.9975375069904419	-1.0560269858756888	0.0	1.12494431438674	-1.106923783243002	0.0	1.0844253410610605	-1.0814365487624324	0.0	0.9640322495504722	-1.0728259973822816	0.0	1.068181039973829	-0.03094808387711928	0.0	1.1100677830725778	-0.052473155183473265	0.0	1.1853507190339019	0.04200368055675149	0.0	1.0205348121732427	-0.005735246888132027	0.0	0.8539854472668866	-0.18319183811820394	0.0	0.7618746308685831	-0.46987897457697725	0.0	1.1019959130519779	-0.0476951924934275	0.0	1.0335390224081085	-0.2736972076351091	0.0	0.9648493176838558	-0.4793133151801364	0.0
175	5.855263157894737	0.9994319292819118	-0.4755542453484327	0.0	0.9452930334760982	-0.4757562202968415	0.0	0.9447450780600195	-0.8801012376150812	0.0	0.8972727377216145	-1.0810295094390143	0.0	1.195396826238423	-1.2038421187207735	0.0	1.1924881414902133	-1.1149289079529727	0.0	0.8656049231028194	-1.0846327006268268	0.0	1.0486074179623408	-0.49961190771199276	0.0	1.0574058840462928	-0.8592037172497312	0.0	1.0015623922019665	-1.058358874061428	0.0	1.1507021102790647	-1.1163797112649516	0.0	1.0951781860839729	-1.0843160892381765	0.0	0.9706447171694679	-1.0751040832762468	0.0	1.07421031608285	-0.029747886716135853	0.0	1.1101392661560718	-0.052457134979209515	0.0	1.2024685374230555	0.06236333296020292	0.0	1.0321425478606396	-0.004736811860826932	0.0	0.8391619724857614	-0.17216897904742748	0.0	0.7212965264851123	-0.45258657587184015	0.0	1.1063243566824905	-0.045688215126240765	0.0	1.0253547449576206	-0.27030107973710765	0.0	0.9203775519311868	-0.4647358725373019	0.0
176	5.888721804511278	0.9940728392985881	-0.47558293727101064	0.0	0.9387780971222974	-0.4745821181151903	0.0	0.9400202870162072	-0.8808938593756385	0.0	0.8909088927665745	-1.0819029857527793	0.0	1.1953677404860226	-1.2033570453254494	0.0	1.1924397870723735	-1.1148705157152203	0.0	0.8616690525289188	-1.0843202018017521	0.0	1.0446113563319412	-0.5004007207472471	0.0	1.0644037764577479	-0.8535533597089794	0.0	1.0077262919042411	-1.0595537612252517	0.0	1.172808813992991	-1.123779893193588	0.0	1.1087338331684071	-1.0857627506238314	0.0	0.9773718594260887	-1.0767517622729879	0.0	1.0795260778970464	-0.02958322139699206	0.0	1.1102213991659533	-0.052446344802386614	0.0	1.2189809847164104	0.07555507325882582	0.0	1.0420684517457328	-0.004732813812398746	0.0	0.8327003334899238	-0.1677885432100165	0.0	0.7014041521971867	-0.4432946147878627	0.0	1.1102618932953348	-0.045212939953533926	0.0	1.0193527738896961	-0.2691310467669503	0.0	0.8939862128330188	-0.45052020107770385	0.0
177	5.9221804511278195	0.9906711512940953	-0.4770915301146896	0.0	0.9351209649847619	-0.4754309014635312	0.0	0.9382475269834976	-0.8830402525233036	0.0	0.8881429815918438	-1.0829385219145993	0.0	1.195365924330195	-1.203123525874494	0.0	1.1924316391423766	-1.1147946561411868	0.0	0.8599267818538511	-1.0848577871513283	0.0	1.0411103543666709	-0.5022911528244987	0.0	1.0707694090529667	-0.848533991874587	0.0	1.0148871768494747	-1.0599159806602807	0.0	1.1855484086493606	-1.1314670789472208	0.0	1.1199614825481607	-1.0858778343284579	0.0	0.9824181694610857	-1.0765664411219644	0.0	1.084223267708134	-0.030475025619270093	0.0	1.110275649084261	-0.052455276821207174	0.0	1.2306658958060608	0.07491811089325176	0.0	1.0498021067478283	-0.006051391284741062	0.0	0.8356871125498131	-0.17158793483833246	0.0	0.7042487857277472	-0.4452862062654675	0.0	1.1139083927086864	-0.04649014904240896	0.0	1.0196961765883605	-0.27127366779535733	0.0	0.89489368158424	-0.43855433620891277	0.0
